<svg xmlns="http://www.w3.org/2000/svg" viewBox="0 0 1920 1157"><defs><style>.cls-1{fill:#8193a5;}.cls-2{fill:#fff;}</style></defs><title>Asset 8</title><g id="Layer_2" data-name="Layer 2"><g id="Layer_1-2" data-name="Layer 1"><rect class="cls-1" width="1920" height="1157"/><path class="cls-2" d="M101.66,838l-6.54,21-.14-.16c-1.41,3.33-3.69,6.27-3.69,9.2,0,6.47-2.41,12.33-3.91,18.33C86,892.05,86,898.12,82.77,903.47,81.22,906,82.15,909.73,81,913c-1.65,4.87-1.17,10.4-2.07,15.58-1.19,6.92-2.82,13.75-4.27,20.63-.28,1.31-.57,2.64-.83,4-.55,2.94.81,5.94-1.43,8.94-1.68,2.22,1.15,6.22-2,8.6-.74,6.92-1.47,13.84-2.26,21.36l-3.28,4.24c-.74-1-1.4-1.48-1.33-1.85.69-3.79-1.29-7.69,1.31-11.53,2-2.88-.39-6.8,1.68-10.53,1.84-3.29-.35-8.24,2.13-12-.46-8.93,4.47-17.16,3.45-26.16,3.45-6.33,3.56-13.63,4.71-20.39,1.49-8.57,4-16.85,5.69-25.34,1.45-7.09,3.16-14.17,5.21-21.11a76.17,76.17,0,0,1,4.37-10.14v0l0-.14v0c.22-.46.45-.95.65-1.43l-.17-.31.23-.83,5.67-21.25.43-1.57,3.45-3.27c.31.64.86,1.33.71,1.57A10.17,10.17,0,0,0,101.66,838Z"/><path class="cls-2" d="M448.47,476.51c-2.67,4.45-7,5.69-10.17,6.76-13.22,4.36-25.67,10.28-38.12,16.26-4.33,2.07-8.71,4-13,6.13-6,3-12.21,5.57-17.64,9.31-3.16,2.17-6.49,3.9-9.68,5.92l-.22.13h0l-.88.58c-1.93,1.23-3.88,2.5-5.92,3.83,0,0,0,.07,0,.1l-23.72,15.79,0,.43c-5.5,4.09-10.26,7.64-15.05,11.14-6.16,4.5-11.72,9.86-18.56,13.45-.73.38-1.21,1.21-1.85,1.8-20.28,18-39.2,37.53-58.42,56.69-4.51,8.59-13.91,13-18.3,21.75-7.76,4.24-11.15,12.5-16.59,18.81a330.76,330.76,0,0,0-21.78,27.88c-5.38,7.81-10,16-15.35,23.8-4.31,6.26-8.75,12.52-13.13,18.78-1.24,1.78-2.77,3.45-3.58,5.42-2,4.79-3.83,9.6-8,13.07a4.79,4.79,0,0,0-.84,1.36c-3.59,6.87-7.28,13.66-10.72,20.58-3.79,7.62-7.89,15.14-10.83,23.09-2.22,6-5.57,11.49-7.79,17.48-.83,2.19-1.85,4.31-3,6.93l-3.88-2.69a9.72,9.72,0,0,0,1.19-1.64c5.93-12.49,11.81-25,17.76-37.48,4-8.4,7.9-16.85,12.22-25.09,1.76-3.37,5.6-5.94,6.43-9.37s3.71-6.07,3.86-9.69c6.75-5.23,8.44-14.16,14.59-19.85a8.53,8.53,0,0,0,2.4-4.14c.83-3.7,3.07-6.3,5.5-9a14.55,14.55,0,0,0,3.19-5.54c1.09-3.64,3.71-6,6-8.78,6.8-8.35,14.32-16.11,20.25-25.2,2.57-3.93,5.93-7.36,9.09-10.9,5.83-6.52,12.11-12.67,17.59-19.47,14.4-17.85,32.13-32.46,47.47-49.38,2.14-2.36,5.6-2.59,7.09-6.31,1.15-2.9,5.26-4.66,8.1-6.83,2.64-2,3.95-5.68,7.8-6.14,2-4.42,6.76-5.62,10.17-8.4s6.75-5.81,10.28-8.5,7.64-5.21,11.32-8a24.49,24.49,0,0,0,3-2.76l.1.07,26.44-17.85-.12-.34c7.24-4.2,14-8.18,20.82-11.92,7-3.83,13.93-8,21.35-10.87,10-3.86,19.19-9.17,28.94-13.42,5.83-2.53,12.14-3.89,17.68-7.33C443.33,476.08,445.68,476.65,448.47,476.51Z"/><path class="cls-2" d="M446.9,473.51c3.36-7.1,9.62-3.94,12.82-7.3,1.44.58,2.94,1.73,4.37,1.65,2.36-.12,4.68-1.47,7-1.47s4.66,1.45,7,1.51c6.38.17,12.84.83,19-2l2.39,2.92a3.11,3.11,0,0,1-.61.88c-3.25,2.58-7.38,1.21-11,2.43-6.53,2.22-13.14,4.16-19.73,6.18a10.51,10.51,0,0,1-2.36,0l-3.3,4a57.71,57.71,0,0,1-6.23,2.41c-1.49.33-3.07.22-6.79.43l7-5.71v-5.73l-1.58-1.58Z"/><path class="cls-2" d="M44.48,894.3v-9.49c-1.59,1-3,1.3-3.32,2.09-.91,2.22-1.85,4-5.56,3.35l3.93-9.06-12.6-6.34c3.18-.84,4.73-1.8,5.81-1.42A48.78,48.78,0,0,1,39.6,877c2.6-1.73,1.15-2.83.18-4.29-.41-.63.29-2,1.93-3.21l3.19,6.38,7.4-7.4h6.12c-.23,1.15-.12,2.27-.59,2.61-2.12,1.58-4.41,2.95-7.34,4.85l9.4,3.22v2.49c-3.94.43-7.72,1.18-11.19-2.58C48,882.43,50.12,882.82,51,884a43.41,43.41,0,0,0,4.18,4.28l-4.22.78c-.48-.6-2.24-2.76-4-5-3,3.18,3,6.11.49,9.73Z"/><path class="cls-2" d="M528.34,516c4-1.1.94-8.62,7.37-8.27v4.5l-3.88,4.11,7.77-1,5.39,3.74L534.5,520c-.06,1.14-.13,2.47-.19,3.8,4.77,2.8,4.77,2.8,7.22,8.26-1.78-.62-3.1-.74-3.94-1.44-1.77-1.44-3.22-3.27-5-4.77a11.71,11.71,0,0,0-3.1-1.3c1.08,3.65-.48,6.23-.91,9h-4.27l3.71-11.21-9.81,4.53-2.92-2.8c1-.88,1.81-2.25,2.89-2.48,2.37-.5,5.18.64,7.26-2.69l-5.2-8.18,2.42-2.67c.4.13,1,.15,1.16.42C525.4,510.94,526.86,513.49,528.34,516Z"/><path class="cls-2" d="M352.93,321.53c-4-.89-5.44,6.2-10.24,2.31l5.74-4.48v-4.93l4.95,2.91c-.69-2.91-1.06-4.51-1.58-6.72l2-4.46c.38.18,1,.28,1.13.58a6.66,6.66,0,0,1,.25,5.36l2,2,7.84-2.72v4.34l-5,.94c.27,1.52.07,3.42.92,4.47,1.61,2,3.64,3.62,2.22,6.86-4.17-1.21-4.26-6-7.24-8.22-3.23,2.77.6,4.81.79,7.45l-2.19,2.41a4.45,4.45,0,0,1-1.18-.41C350.19,327,351.76,324.22,352.93,321.53Z"/><path class="cls-2" d="M207.77,604.63l8.21-5.28c-2.09,3.92-3.88,7-7,9.48l5.54,6.66c-4.51.29-6.51-2.12-8.58-4.21-1.68,4-3.38,7.94-5.24,12.29-3-5.06,2.49-8.89.43-13.46l-6.51,1.23c.45-1.08.5-1.66.79-1.84,2.5-1.53,5-3,6.86-4-.33-2.67-.63-5.2-.94-7.74l1.1-.37Z"/><path class="cls-2" d="M539.65,288.36c-.51,4.92,4.46,5.55,5.22,9.84l-4.13,1.06-4.53-5.7c-1.24,1.2-2.69,2.6-5.59,5.43.57-3.95.85-5.91,1.23-8.52l-2.83-3,4.92-3.07c.43-1.43.91-3,1.9-6.37,1.87,4.15,3,6.63,4.29,9.55l3.7-1.95,4.33,2.14-2.68,2.68C543.73,289.8,541.89,289.14,539.65,288.36Z"/><path class="cls-2" d="M589.69,328v-8h7.74l2.72,2.24L597.67,328Z"/><path class="cls-2" d="M205.43,778.15c-2.66-1.73-2.64-4.65-2-7.76l7.94-2.42v10.18Z"/><path class="cls-2" d="M236.66,472.36l4.35-1.52-.93-.92h7.73v6.53l-4.64,2.34Z"/><path class="cls-2" d="M37.85,276.44l4.35-1.51-.93-.93H49v6.54l-4.64,2.33Z"/><path class="cls-2" d="M57.63,471.5c4-1.1.94-8.62,7.37-8.27v4.5l-3.88,4.1,7.76-1,5.4,3.75-10.5.92c-.05,1.15-.12,2.48-.19,3.81,4.78,2.79,4.78,2.79,7.23,8.26-1.79-.62-3.1-.75-3.94-1.44-1.77-1.44-3.22-3.27-4.95-4.77-.7-.61-1.79-.78-3.1-1.31,1.08,3.65-.48,6.24-.91,9H53.65c1.11-3.36,2.19-6.63,3.71-11.21l-9.81,4.53-2.92-2.8c1-.88,1.81-2.25,2.88-2.48,2.38-.5,5.19.64,7.27-2.69l-5.21-8.19L52,463.49c.4.14,1,.15,1.16.43C54.69,466.42,56.15,469,57.63,471.5Z"/><path class="cls-2" d="M151.65,329.36c-.51,4.92,4.46,5.55,5.22,9.84l-4.13,1.06-4.53-5.7c-1.24,1.2-2.69,2.6-5.59,5.43.57-3.95.85-5.91,1.23-8.52l-2.83-3,4.92-3.07c.43-1.43.91-3,1.9-6.37,1.87,4.15,3,6.63,4.29,9.55l3.7-1.95,4.33,2.14-2.68,2.68C155.73,330.8,153.89,330.14,151.65,329.36Z"/><path class="cls-2" d="M1662.21,961.15l.1,9.49c1.58-1,3-1.33,3.29-2.12.88-2.23,1.81-4,5.53-3.41-1.3,3.07-2.48,5.87-3.84,9.1l12.66,6.2c-3.16.88-4.71,1.86-5.79,1.49a48.48,48.48,0,0,1-6.9-3.5c-2.58,1.76-1.11,2.85-.13,4.29.42.63-.27,2-1.89,3.24l-3.26-6.35-7.33,7.48-6.12.06c.22-1.15.1-2.27.56-2.62,2.11-1.6,4.38-3,7.29-4.92l-9.42-3.13,0-2.49c3.93-.47,7.7-1.26,11.21,2.47.69-3.37-1.46-3.74-2.29-4.86a43.06,43.06,0,0,0-4.24-4.23l4.22-.83,4.1,5c3-3.2-3-6.07-.59-9.71Z"/><path class="cls-2" d="M1737,1080.14c4,.86,5.37-6.26,10.21-2.41l-5.69,4.54,0,4.93-5-2.86,1.64,6.7-2,4.48c-.38-.18-1-.27-1.14-.56a6.65,6.65,0,0,1-.3-5.36l-2-2-7.8,2.8,0-4.34,5-1c-.29-1.51-.11-3.42-1-4.47-1.64-2-3.68-3.57-2.3-6.83,4.18,1.16,4.33,6,7.32,8.15,3.21-2.81-.65-4.8-.86-7.45l2.16-2.43a4.51,4.51,0,0,1,1.19.4C1739.69,1074.66,1738.15,1077.44,1737,1080.14Z"/><path class="cls-2" d="M1879.18,795.54,1871,800.9c2-3.94,3.8-7,6.91-9.55l-5.61-6.61c4.5-.33,6.53,2.06,8.63,4.12l5.1-12.34c3.09,5-2.39,8.91-.28,13.46l6.49-1.29c-.44,1.09-.48,1.67-.77,1.85-2.48,1.55-5,3-6.81,4.1.35,2.67.68,5.2,1,7.74l-1.1.38Z"/><path class="cls-2" d="M1550.64,1115.28c.46-4.93-4.51-5.51-5.32-9.79l4.12-1.1,4.6,5.65,5.53-5.49c-.53,4-.8,5.92-1.15,8.53l2.87,3-4.89,3.12c-.42,1.44-.88,3-1.84,6.39-1.9-4.13-3-6.59-4.39-9.5l-3.67,2-4.36-2.09,2.65-2.71Z"/><path class="cls-2" d="M1500.19,1076.16l.08,8-7.73.08-2.75-2.21,2.42-5.81Z"/><path class="cls-2" d="M1879.7,622c2.68,1.7,2.69,4.63,2,7.74l-7.92,2.5-.1-10.18Z"/><path class="cls-2" d="M1857,1135.37l-4.34,1.56.94.92-7.73.08-.06-6.54,4.61-2.38Z"/><path class="cls-2" d="M1873.72,1107.19l-4.33,1.56.94.92-7.73.08-.07-6.54,4.62-2.38Z"/><path class="cls-2" d="M1812.88,1122.83l-4.33,1.56.94.92-7.73.08-.07-6.54,4.62-2.38Z"/></g></g></svg>