<?xml version="1.0" ?><svg viewBox="0 0 96 96" xmlns="http://www.w3.org/2000/svg"><title/><g data-name="Layer 2" id="Layer_2"><g data-name="Layer 2" id="Layer_2-2"><path d="M50.07,48.29a2.36,2.36,0,0,1,.85-.25c-.55-1.23-1.12-2.47-1.73-3.65a78.28,78.28,0,0,1-21.85,3,5.38,5.38,0,0,0,0,.69,21.11,21.11,0,0,0,5.46,14.2v0S38.55,52,50.07,48.29Z"/><path d="M35.51,64.87c-.16-.14-.33-.25-.47-.38C35.32,64.74,35.51,64.87,35.51,64.87Z"/><path d="M47.41,41.13a121.5,121.5,0,0,0-7.92-12.28A21.28,21.28,0,0,0,27.78,43.71,78.55,78.55,0,0,0,47.41,41.13Z"/><path d="M43.43,27.45c.06,0,.06,0,.08,0A.12.12,0,0,1,43.43,27.45Z"/><path d="M62.65,32.11A21.23,21.23,0,0,0,43.6,27.42a105.1,105.1,0,0,1,8,12.39C59.55,36.8,62.6,32.19,62.65,32.11Z"/><path d="M48,0A48,48,0,1,0,96,48,48,48,0,0,0,48,0ZM73,53.11a25,25,0,0,1-1.43,4.69A26.64,26.64,0,0,1,69.26,62a29.48,29.48,0,0,1-3,3.67,23,23,0,0,1-3.7,3A26,26,0,0,1,58.29,71,23.14,23.14,0,0,1,48.59,73,23.13,23.13,0,0,1,38.91,71a26.29,26.29,0,0,1-4.25-2.28,22.82,22.82,0,0,1-3.67-3,25.39,25.39,0,0,1-3-3.67,21.16,21.16,0,0,1-2.28-4.25,21.67,21.67,0,0,1-1.48-4.69,23.57,23.57,0,0,1-.52-5,8.44,8.44,0,0,1,.06-1.21,20.39,20.39,0,0,1,.47-3.84,21.71,21.71,0,0,1,1.48-4.69,21.19,21.19,0,0,1,2.28-4.25,24.08,24.08,0,0,1,3-3.67,26.09,26.09,0,0,1,3.67-3,26.51,26.51,0,0,1,4.25-2.31,23.59,23.59,0,0,1,4.66-1.42,24.58,24.58,0,0,1,10.06,0,23.58,23.58,0,0,1,4.66,1.42,25.55,25.55,0,0,1,7.92,5.35,27.72,27.72,0,0,1,3,3.67,26.68,26.68,0,0,1,2.33,4.25A25,25,0,0,1,73,43.08a25.54,25.54,0,0,1,.47,4.11,5,5,0,0,1,.05.93A25.72,25.72,0,0,1,73,53.11Z"/><path d="M65.06,34.58c-.08.08-3.48,5-11.9,8.42.17.3.3.58.44.85.33.77.66,1.48,1,2.25a7.27,7.27,0,0,0,.47,1.1,48,48,0,0,1,14.81.71c0-.6-.05-1.15-.08-1.7A21.27,21.27,0,0,0,65.06,34.58Z"/><path d="M52.23,51.58c-12.56,4.36-16.67,13.22-16.72,13.3A21.18,21.18,0,0,0,48.59,69.4a21.4,21.4,0,0,0,8.31-1.7,87.8,87.8,0,0,0-4.52-16.15C52.32,51.55,52.29,51.58,52.23,51.58Z"/><path d="M56.35,50.56a91.72,91.72,0,0,1,4.14,15.19,21.34,21.34,0,0,0,9.16-14.28A31.41,31.41,0,0,0,56.35,50.56Z"/></g></g></svg>