<svg xmlns="http://www.w3.org/2000/svg" viewBox="0 0 376.32 376.03"><defs><style>.cls-1{fill:#fbb03b;}.cls-2,.cls-6{stroke:#000;}.cls-2,.cls-4,.cls-6{stroke-miterlimit:10;}.cls-3{fill:#1a1a1a;}.cls-4,.cls-7{fill:#fff;}.cls-4{stroke:#fff;}.cls-5{fill:#f2f2f2;}.cls-6{fill:none;}</style></defs><title>pull_panda_logo_square</title><g id="Layer_2" data-name="Layer 2"><g id="Layer_2-2" data-name="Layer 2"><path class="cls-1" d="M376.32,23.59V351.43c0,13-9.65,23.6-21.54,23.6H22.83c-11.9,0-21.54-10.56-21.54-23.6V23.59C1.29,10.56,10.93,0,22.83,0h332C366.67,0,376.32,10.56,376.32,23.59Z"/><path class="cls-2" d="M346.59,152.92A53.51,53.51,0,0,1,321.91,198c-12.05-25.71-29.48-47.55-50.55-63.53a53.3,53.3,0,0,1,28.55-28.2,56.57,56.57,0,0,1,6.71-2.3,53.59,53.59,0,0,0-54.46,18.12l-1.24-.67c-.28-.15-.56-.3-.85-.44a53.54,53.54,0,0,1,96.52,31.92Z"/><path class="cls-2" d="M125.78,120.7q-2.84,1.45-5.61,3c-20.6,11.75-38.58,28.71-52.61,49.39a53.49,53.49,0,0,1-25.95-45.88,57,57,0,0,1,.45-7.08A53.55,53.55,0,0,0,54.37,196c-.27.55-.53,1.1-.79,1.65a53.54,53.54,0,1,1,72.2-76.93Z"/><path class="cls-3" d="M67.56,173.12A178.39,178.39,0,0,0,54.37,196a53.55,53.55,0,0,1-12.31-75.82,57,57,0,0,0-.45,7.08A53.49,53.49,0,0,0,67.56,173.12Z"/><path class="cls-3" d="M306.62,104a56.57,56.57,0,0,0-6.71,2.3,53.3,53.3,0,0,0-28.55,28.2,146.25,146.25,0,0,0-19.2-12.38A53.59,53.59,0,0,1,306.62,104Z"/><path class="cls-4" d="M340.2,279.05q-12.81-7.38-26.32-13.58a293,293,0,0,0-251.6,0q-14,6.42-27.18,14.13a203.47,203.47,0,0,1,2.18-27.84,196.41,196.41,0,0,1,9.59-38q3-8.26,6.71-16.09c15-31.87,38.33-57.79,66.59-73.9q2.77-1.58,5.61-3a134.41,134.41,0,0,1,124.29.3c.29.14.57.29.85.44,30.26,15.94,55.23,43,71,76.58q2.44,5.23,4.6,10.67A194.56,194.56,0,0,1,338,251.8,202.93,202.93,0,0,1,340.2,279.05Z"/><path class="cls-5" d="M336.82,272.4c0,1.57,0,3.14-.06,4.69q-11.19-6.25-22.88-11.62-6.47-3-13.1-5.8a179.16,179.16,0,0,0-2.2-27.13,172.63,172.63,0,0,0-11.52-40.39c-15.24-36.15-42.19-65.3-75.59-81.79-.48-.24-.95-.46-1.45-.68a142.4,142.4,0,0,1,37.49,12.46c33.4,16.49,60.35,45.64,75.59,81.77a173.26,173.26,0,0,1,11.51,40.41A178.94,178.94,0,0,1,336.82,272.4Z"/><path d="M266.44,208.45c-53.19-13.27-104.37-13.27-157.57,0q2-22.63,5.56-45.27c50-15.22,96.44-15.22,146.46,0Q264.4,185.82,266.44,208.45Z"/><path class="cls-6" d="M266.44,208.45c-53.19-13.27-104.37-13.27-157.57,0q2-22.63,5.56-45.27c50-15.22,96.44-15.22,146.46,0Q264.4,185.82,266.44,208.45Z"/><path class="cls-3" d="M166.06,153.08l-.88,44.69s-18.89,2.35-25.15,3.44c-5.81,1-23.11,5-23.11,5l2.4-44.14s16.47-4.65,22.79-5.68C148.26,155.37,166.06,153.08,166.06,153.08Z"/><path d="M375,302.18V354.5A21.54,21.54,0,0,1,353.49,376H21.54A21.53,21.53,0,0,1,0,354.5V303.25A317.77,317.77,0,0,1,35.1,279.6q13.2-7.69,27.18-14.13a292.79,292.79,0,0,1,238.5-5.8q6.63,2.74,13.1,5.8,11.69,5.37,22.88,11.62c1.15.65,2.3,1.3,3.44,2A319.2,319.2,0,0,1,375,302.18Z"/><path class="cls-3" d="M95.64,252.65Q82,259.91,69.13,268.36A348.36,348.36,0,0,0,0,326.18v-22a320.39,320.39,0,0,1,63.16-38.46A302.28,302.28,0,0,1,95.64,252.65Z"/><path class="cls-7" d="M350.47,376H23.73q8.7-16.35,18-31.92c33.53-59.32,87.11-95.82,142.47-96.08h2c57.91.29,113.9,39,149.12,101.27Q343.06,362.4,350.47,376Z"/><path class="cls-5" d="M348.65,375H305.94l-.57-1.58C285.31,316.3,246.93,271.09,201.2,249.53c51.55,6.85,100.2,43.18,131.88,98.37Q341,361.18,348.65,375Z"/><path class="cls-5" d="M123.3,151.69a3.67,3.67,0,0,1-3.91,3.69,3.57,3.57,0,0,1-3.81-3.71,4,4,0,0,1,3.91-3.69A3.91,3.91,0,0,1,123.3,151.69Z"/><path class="cls-5" d="M135.46,148.42a3.68,3.68,0,0,1-3.91,3.69,3.58,3.58,0,0,1-3.82-3.71,4,4,0,0,1,3.92-3.69A3.93,3.93,0,0,1,135.46,148.42Z"/><path d="M198,265.41a48.8,48.8,0,0,1,19.33,4.28A45.69,45.69,0,0,1,230.72,279a41.37,41.37,0,0,1,8.16,11.73A38.71,38.71,0,0,1,242.3,303a23.72,23.72,0,0,1-1.3,10.82,15.77,15.77,0,0,1-6.94,8c-3.39,2-8,3.35-13.77,4.17s-13,.82-21.51.46a192,192,0,0,0-31.43,1.23q-.66,14.12-1.33,28.24c-.14,3.17-4.18,6.17-9,6.94q-7.11.56-14.11,1.62c-4.77,1.11-8.06-2-7.72-5.24q4.22-40.5,8.42-81c.34-3.19,3.77-6.74,7.69-7.73A170.29,170.29,0,0,1,198,265.41ZM190.63,310c3.33,0,6.53-.11,9.6-.32a30.13,30.13,0,0,0,8.05-1.5,11.33,11.33,0,0,0,5.4-3.75c1.32-1.71,1.89-4.06,1.75-7.1a14.16,14.16,0,0,0-2.36-7.63,16,16,0,0,0-5.52-4.9,24.72,24.72,0,0,0-7.75-2.56,52.64,52.64,0,0,0-9.08-.69q-6.89.06-13.74.65c-4.15.36-7.63,3.39-7.79,6.56q-.41,8.46-.8,16.93c-.16,3.17,3.28,5.27,7.69,4.92C180.92,310.22,185.78,310,190.63,310Z"/></g></g></svg>