<svg xmlns="http://www.w3.org/2000/svg" viewBox="0 0 473.01 473.63"><defs><style>.cls-1{fill:#fbb03b;}.cls-2,.cls-6{stroke:#000;}.cls-2,.cls-4,.cls-6{stroke-miterlimit:10;}.cls-3{fill:#333;}.cls-4,.cls-8{fill:#fff;}.cls-4{stroke:#fff;}.cls-5{fill:#e6e6e6;}.cls-6{fill:none;}.cls-7{fill:#1a1a1a;}.cls-9{fill:#ccc;}</style></defs><title>pull_panda_logo</title><g id="Layer_2" data-name="Layer 2"><g id="Layer_2-2" data-name="Layer 2"><path class="cls-1" d="M473,29.72V442.65c0,16.41-12.15,29.72-27.13,29.72H27.78c-15,0-27.13-13.31-27.13-29.72V29.72C.65,13.31,12.79,0,27.78,0h418.1C460.86,0,473,13.31,473,29.72Z"/><path class="cls-2" d="M436.55,192.61a67.4,67.4,0,0,1-31.09,56.8c-15.18-32.38-37.13-59.89-63.67-80a67.1,67.1,0,0,1,36-35.52,70.89,70.89,0,0,1,8.45-2.9,67.52,67.52,0,0,0-68.59,22.82c-.52-.29-1-.56-1.57-.84-.35-.19-.7-.38-1.07-.56a67.44,67.44,0,0,1,121.58,40.21Z"/><path class="cls-2" d="M158.43,152c-2.39,1.22-4.74,2.49-7.07,3.81-26,14.8-48.59,36.16-66.27,62.21a67.37,67.37,0,0,1-32.68-57.79,70.8,70.8,0,0,1,.57-8.91,67.45,67.45,0,0,0,15.5,95.49c-.34.7-.67,1.39-1,2.08A67.43,67.43,0,1,1,158.43,152Z"/><path class="cls-3" d="M85.09,218.05a225.75,225.75,0,0,0-16.61,28.79A67.45,67.45,0,0,1,53,151.35a70.8,70.8,0,0,0-.57,8.91A67.37,67.37,0,0,0,85.09,218.05Z"/><path class="cls-3" d="M386.2,131a70.89,70.89,0,0,0-8.45,2.9,67.1,67.1,0,0,0-36,35.52,184,184,0,0,0-24.18-15.6A67.52,67.52,0,0,1,386.2,131Z"/><path class="cls-4" d="M428.5,351.47q-16.14-9.29-33.15-17.1a369,369,0,0,0-316.91,0c-11.71,5.39-23.15,11.34-34.23,17.8A255.44,255.44,0,0,1,47,317.1,247.72,247.72,0,0,1,59,269.19q3.78-10.41,8.46-20.27c18.91-40.14,48.27-72.79,83.87-93.08,2.33-1.32,4.68-2.59,7.07-3.81A169.26,169.26,0,0,1,315,152.4c.37.18.72.37,1.07.56,38.12,20.08,69.57,54.11,89.42,96.45q3.07,6.6,5.79,13.44a245.21,245.21,0,0,1,14.51,54.3A255.88,255.88,0,0,1,428.5,351.47Z"/><path class="cls-5" d="M424.24,343.1c0,2,0,3.95-.08,5.91q-14.09-7.89-28.81-14.64-8.14-3.84-16.5-7.3a224.44,224.44,0,0,0-2.78-34.18A216.65,216.65,0,0,0,361.56,242c-19.19-45.53-53.14-82.25-95.2-103-.61-.3-1.2-.58-1.83-.85a179.26,179.26,0,0,1,47.22,15.69c42.07,20.77,76,57.49,95.21,103a218.67,218.67,0,0,1,14.5,50.9A226.22,226.22,0,0,1,424.24,343.1Z"/><path d="M353.61,270.4c-78.08-19.48-153.2-19.48-231.29,0q3-33.22,8.17-66.45c73.44-22.35,141.55-22.35,215,0Q350.63,237.18,353.61,270.4Z"/><path class="cls-6" d="M353.61,270.4c-78.08-19.48-153.2-19.48-231.29,0q3-33.22,8.17-66.45c73.44-22.35,141.55-22.35,215,0Q350.63,237.18,353.61,270.4Z"/><path class="cls-7" d="M195.19,196.58,194.46,252s-23.84,1.95-31.72,3.33c-7.32,1.28-32.44,6.73-32.44,6.73l6.42-53.87s21.42-6.05,29.39-7.35C173.86,199.6,195.19,196.58,195.19,196.58Z"/><path d="M472.37,380.61v65.9a27.14,27.14,0,0,1-27.13,27.12H27.13A27.13,27.13,0,0,1,0,446.51V382a399.78,399.78,0,0,1,44.21-29.79c11.08-6.46,22.52-12.41,34.23-17.8a368.73,368.73,0,0,1,300.41-7.3q8.34,3.45,16.5,7.3,14.72,6.76,28.81,14.64c1.45.82,2.9,1.63,4.34,2.46A402.6,402.6,0,0,1,472.37,380.61Z"/><path class="cls-3" d="M120.46,318.22Q103.27,327.37,87.07,338A438.81,438.81,0,0,0,0,410.84V383.09a403.85,403.85,0,0,1,79.55-48.44A380.33,380.33,0,0,1,120.46,318.22Z"/><path class="cls-8" d="M441.43,473.63H29.89Q40.84,453,52.5,433.42c42.23-74.71,109.72-120.69,179.44-121h2.56C307.44,312.77,378,361.48,422.32,440Q432.1,456.45,441.43,473.63Z"/><path class="cls-5" d="M439.14,472.37h-53.8c-.23-.67-.47-1.34-.71-2-25.27-72-73.61-128.93-131.21-156.09,64.93,8.63,126.21,54.39,166.11,123.9Q429.57,454.92,439.14,472.37Z"/><path class="cls-9" d="M147.53,182.32c.14,2.57-2.07,4.65-4.92,4.65s-5-2.09-4.8-4.67a5.05,5.05,0,0,1,4.92-4.65A4.93,4.93,0,0,1,147.53,182.32Z"/><path class="cls-9" d="M162.85,178.2a4.64,4.64,0,0,1-4.93,4.65c-2.85,0-5-2.09-4.8-4.67a5.05,5.05,0,0,1,4.92-4.65A4.94,4.94,0,0,1,162.85,178.2Z"/><polygon class="cls-3" points="159.38 256.27 137.64 260.86 141.53 206.65 161.82 201.48 159.38 256.27"/></g></g></svg>