<svg xmlns="http://www.w3.org/2000/svg" viewBox="0 0 358.73 366.8"><defs><style>.cls-1,.cls-3{stroke:#000;stroke-miterlimit:10;}.cls-2{fill:#1a1a1a;}.cls-3,.cls-7{fill:#fff;}.cls-4{fill:#f2f2f2;}.cls-5{fill:#e6e6e6;}.cls-6{fill:#333;}</style></defs><title>pull_panda_logo_detailed</title><g id="Layer_2" data-name="Layer 2"><g id="Layer_2-2" data-name="Layer 2"><path class="cls-1" d="M275.67,33.24a32.69,32.69,0,0,1-15.1,27.58c-9.63-20.55-24.9-37.08-43.41-46.83l-.52-.27a32.74,32.74,0,0,1,59,19.52Z"/><path class="cls-1" d="M140.62,13.54c-1.15.59-2.29,1.21-3.42,1.85-17.29,9.85-31.54,25.7-40.73,45.2a32.74,32.74,0,1,1,44.15-47.05Z"/><path class="cls-2" d="M83,32.74a32.74,32.74,0,0,0,65.2,4.33,32.74,32.74,0,0,1-59-19.53,34.35,34.35,0,0,1,.28-4.33A32.67,32.67,0,0,0,83,32.74Z"/><path class="cls-2" d="M230.71,4.86a32.75,32.75,0,0,0,21.07,61.86,32.75,32.75,0,0,1-4.66-62,35.57,35.57,0,0,1,4.11-1.4A32.71,32.71,0,0,0,230.71,4.86Z"/><path class="cls-3" d="M270.44,93.72a119,119,0,0,0-7.05-26.37c-.88-2.22-1.82-4.39-2.82-6.53-9.63-20.55-24.9-37.08-43.41-46.83l-.52-.27a82.17,82.17,0,0,0-76-.18c-1.15.59-2.29,1.21-3.42,1.85-17.29,9.85-31.54,25.7-40.73,45.2q-2.28,4.78-4.11,9.84A120.05,120.05,0,0,0,86.5,93.69a125.28,125.28,0,0,0-1.34,17q8.09-4.69,16.63-8.64a179.18,179.18,0,0,1,153.88,0q8.25,3.8,16.11,8.3A126.35,126.35,0,0,0,270.44,93.72ZM130.28,67.21q1.26-13.84,3.41-27.69c30.6-9.31,59-9.31,89.57,0q2.15,13.84,3.4,27.69A193.71,193.71,0,0,0,130.28,67.21Z"/><path class="cls-4" d="M269.7,106.32c0,1,0,1.92,0,2.87q-6.84-3.82-14-7.11-4-1.87-8-3.55a108.91,108.91,0,0,0-1.34-16.59,105.37,105.37,0,0,0-7-24.71C230,35.13,213.46,17.3,193,7.21l-.88-.41a87,87,0,0,1,22.93,7.62c20.42,10.08,36.91,27.91,46.23,50a105.86,105.86,0,0,1,7,24.71A109.23,109.23,0,0,1,269.7,106.32Z"/><path class="cls-1" d="M226.66,67.21a193.71,193.71,0,0,0-96.38,0q1.26-13.84,3.41-27.69c30.6-9.31,59-9.31,89.57,0Q225.41,53.36,226.66,67.21Z"/><path class="cls-2" d="M165.26,33.34l-.54,27.34s-11.55,1.43-15.38,2.1c-3.55.62-14.13,3-14.13,3l1.46-27s10.08-2.85,13.94-3.48S165.26,33.34,165.26,33.34Z"/><path class="cls-1" d="M178.65,316.18a174.24,174.24,0,0,0-20.78,50.12H16.68q.27-2.78.59-5.58A504.21,504.21,0,0,1,46.8,240q3-.15,6.1-.15C105.76,239.81,151.62,270.29,178.65,316.18Z"/><path class="cls-1" d="M188.93,300.58c-1.64,2.24-3.24,4.53-4.78,6.86-.63.92-1.26,1.85-1.87,2.79Q185.45,305.27,188.93,300.58Z"/><path class="cls-1" d="M332.36,309.94a485.4,485.4,0,0,1,11.09,56.36H199.7c0-.2-.11-.42-.15-.62a175.33,175.33,0,0,0-19.46-47.1l-.54-.9c-.3-.51-.59-1-.9-1.51q1.75-3,3.63-5.94c.61-.94,1.24-1.87,1.87-2.79,1.54-2.33,3.14-4.62,4.78-6.86l1.66-2.22c.31-.42.63-.83.95-1.24s.66-.85,1-1.27l1.29-1.6c26.22-32.38,63.33-53.22,105.34-54.7.8,0,1.61-.06,2.42-.08s1.36,0,2.05,0h.42c1.46,0,2.92,0,4.38.06h-.87l2.17.07a535.46,535.46,0,0,0-41-86.22c-21.54-38.11-55.78-61.76-91.2-61.94h-1.24c-33.86.16-66.63,22.49-87.14,58.77a529.48,529.48,0,0,0-42.11,89.66,146,146,0,0,0-27.12,3c0-.12,0-.25,0-.37,0-1,0-1.9,0-2.85.49-52.72,36.26-104,86.05-135.82q7.86-5.16,16.21-9.61a184.1,184.1,0,0,0-19.86,8c-52,24-92.69,70.26-100.13,123.43-.14,1-.26,1.92-.37,2.89s-.19,1.7-.26,2.56c0,.3-.06.59-.08.88-.15,1.84-.27,3.66-.32,5.47,0,.82-.06,1.62-.07,2.42a.57.57,0,0,0,0,.13c0,.81,0,1.62,0,2.44,0,1.84.09,3.69.22,5.51l-.58.19c-.14-1.94-.21-3.89-.24-5.85,0-.81,0-1.62,0-2.44v-.12c0-.8,0-1.61.06-2.42.06-1.81.16-3.64.33-5.47,0-.29,0-.59.07-.88.08-.86.17-1.71.27-2.57s.23-1.92.37-2.88c6.65-47.36,39.66-89.26,83.55-114.79q8.09-4.69,16.63-8.64a179,179,0,0,1,145.86-3.55q4.07,1.68,8,3.55,7.14,3.28,14,7.11l2.12,1.19c44.36,25.5,77.91,67.56,84.92,115.13.14,1,.27,1.92.38,2.88s.21,1.71.29,2.57c0,.29.06.59.08.88.17,1.84.29,3.66.37,5.47,0,.81.06,1.62.07,2.42a.48.48,0,0,1,0,.12c0,.82,0,1.63,0,2.44,0,1.83-.07,3.66-.18,5.47l.48.16c-1.48,22.63-10.65,43.44-26.08,61a523,523,0,0,0-22.83-69.12h-.56l-2.54,0h.64c.8,0,1.59,0,2.38.07A529.45,529.45,0,0,1,332.36,309.94Z"/><path class="cls-1" d="M178.65,316.17c.31.51.6,1,.9,1.51l-.08.13c-25.2-41.91-65.56-71.18-112.63-76.95,43.62,4.31,81.45,29.57,106.44,66.61,1.92,2.71,3.73,5.51,5.49,8.34q1.69-2.82,3.51-5.58Q180.41,313.15,178.65,316.17Z"/><path class="cls-1" d="M233.06,166.7a16.27,16.27,0,0,1-7.2,8.26c-3.51,2.12-8.26,3.47-14.27,4.32s-13.47.86-22.3.48A199.47,199.47,0,0,0,156.7,181l-1.38,29.28c-.14,3.29-4.33,6.39-9.33,7.19q-7.37.59-14.63,1.68c-4.94,1.15-8.35-2.12-8-5.43q4.35-42,8.72-84c.35-3.31,3.91-7,8-8a176.78,176.78,0,0,1,48.43-5.25,50.48,50.48,0,0,1,20,4.45,47.14,47.14,0,0,1,13.87,9.67,43,43,0,0,1,8.45,12.15,40,40,0,0,1,3.55,12.68A24.63,24.63,0,0,1,233.06,166.7Z"/><path class="cls-1" d="M122.19,94.24q-8.34,4.44-16.21,9.61C56.19,135.63,20.42,187,19.93,239.67c0,1,0,1.9,0,2.85,0,.12,0,.25,0,.37A154.1,154.1,0,0,0,1.33,248c-.13-1.82-.19-3.67-.22-5.51,0-.82,0-1.63,0-2.44a.57.57,0,0,1,0-.13c0-.8,0-1.6.07-2.42.05-1.81.17-3.63.32-5.47,0-.29,0-.58.08-.88.07-.86.17-1.71.26-2.56s.23-1.93.37-2.89c7.44-53.17,48.11-99.47,100.13-123.43A184.1,184.1,0,0,1,122.19,94.24Z"/><path class="cls-2" d="M122.19,94.24q-8.34,4.44-16.21,9.61C56.19,135.63,20.42,187,19.93,239.67c0,1,0,1.9,0,2.85,0,.12,0,.25,0,.37s0,.18,0,.27a156.61,156.61,0,0,0-18.62,5.12c0-.11,0-.22,0-.33-.13-1.82-.19-3.67-.22-5.51,0-.82,0-1.63,0-2.44a.57.57,0,0,1,0-.13c0-.8,0-1.6.07-2.42.05-1.81.17-3.63.32-5.47,0-.29,0-.58.08-.88.07-.86.17-1.71.26-2.56s.23-1.93.37-2.89c7.44-53.17,48.11-99.47,100.13-123.43A184.1,184.1,0,0,1,122.19,94.24Z"/><path class="cls-3" d="M49.67,239.81c-.86,0-1.73,0-2.59,0-.07.17-.13.34-.19.51.73,0,1.46-.07,2.18-.09,1.17,0,2.34-.08,3.51-.08h2.47c.81,0,1.61,0,2.42.07,3.15.09,6.28.29,9.37.6A139.12,139.12,0,0,0,49.67,239.81Z"/><path class="cls-3" d="M309.74,239.57a535.46,535.46,0,0,0-41-86.22c-21.54-38.11-55.78-61.76-91.2-61.94h-1.24c-33.86.16-66.63,22.49-87.14,58.77a529.48,529.48,0,0,0-42.11,89.66c.86,0,1.73,0,2.59,0a139.12,139.12,0,0,1,17.17,1.05c43.62,4.31,81.45,29.57,106.44,66.61,1.92,2.71,3.73,5.51,5.49,8.34,1.7-2.84,3.5-5.64,5.38-8.37,26.33-39.82,67.55-66.22,115-67.89.8,0,1.61-.06,2.42-.08s1.36,0,2.05,0h.42c1.46,0,2.92,0,4.38.06h-.87ZM233.06,166.7a16.27,16.27,0,0,1-7.2,8.26c-3.51,2.12-8.26,3.47-14.27,4.32s-13.47.86-22.3.48A199.47,199.47,0,0,0,156.7,181l-1.38,29.28c-.14,3.29-4.33,6.39-9.33,7.19q-7.37.59-14.63,1.68c-4.94,1.15-8.35-2.12-8-5.43q4.35-42,8.72-84c.35-3.31,3.91-7,8-8a176.78,176.78,0,0,1,48.43-5.25,50.48,50.48,0,0,1,20,4.45,47.14,47.14,0,0,1,13.87,9.67,43,43,0,0,1,8.45,12.15,40,40,0,0,1,3.55,12.68A24.63,24.63,0,0,1,233.06,166.7Z"/><path class="cls-4" d="M308.12,237.88c-.72,0-1.45,0-2.17-.06-1.17,0-2.34-.06-3.5,0H302c-.68,0-1.36,0-2,0l-2.42.08a132.9,132.9,0,0,0-27,3.7,470.75,470.75,0,0,0-20.1-72.84c-12.26-34.95-35.74-62.6-63.71-75.79,31.53,4.19,61.29,26.41,80.66,60.17A519.39,519.39,0,0,1,308.12,237.88Z"/><path d="M.45,248c1.65,22.92,11.06,44,26.8,61.8a526.81,526.81,0,0,1,22.67-70l2.39-.07c-1,0-1.94,0-2.93,0A151.3,151.3,0,0,0,.45,248Z"/><path class="cls-2" d="M17.31,366.3H51.83a469.85,469.85,0,0,1,9.27-55.9,506.37,506.37,0,0,1,20-67.17,134,134,0,0,0-25.24-2.37c-1,0-1.92,0-2.87,0s-1.6,0-2.39.07A516.46,516.46,0,0,0,28,310.4,475.76,475.76,0,0,0,17.31,366.3Z"/><path class="cls-5" d="M141.11,31.49a2.25,2.25,0,0,1-2.39,2.26,2.18,2.18,0,0,1-2.33-2.27,2.46,2.46,0,0,1,2.39-2.26A2.4,2.4,0,0,1,141.11,31.49Z"/><path class="cls-5" d="M148.54,29.49a2.24,2.24,0,0,1-2.39,2.26,2.19,2.19,0,0,1-2.33-2.27,2.46,2.46,0,0,1,2.39-2.26A2.39,2.39,0,0,1,148.54,29.49Z"/><path class="cls-6" d="M167.35,49.58c0,5.7-14.29,10.32-22.18,10.32S135.6,55,137.35,49.32s7.82-10,15.71-10S167.35,43.89,167.35,49.58Z"/><path class="cls-6" d="M185.35,49.58c0,5.7,14.29,10.32,22.18,10.32s9.58-4.92,7.83-10.58-7.83-10-15.72-10S185.35,43.89,185.35,49.58Z"/><path d="M234.41,155.48a40,40,0,0,0-3.55-12.68,43,43,0,0,0-8.45-12.15A47.14,47.14,0,0,0,208.54,121a50.48,50.48,0,0,0-20-4.45,176.78,176.78,0,0,0-48.43,5.25c-4.07,1-7.63,4.7-8,8q-4.36,42-8.72,84c-.36,3.31,3,6.58,8,5.43q7.26-1.09,14.63-1.68c5-.8,9.19-3.9,9.33-7.19L156.7,181a199.47,199.47,0,0,1,32.59-1.28c8.83.38,16.29.38,22.3-.48s10.76-2.2,14.27-4.32a16.27,16.27,0,0,0,7.2-8.26A24.63,24.63,0,0,0,234.41,155.48ZM204.74,157a11.8,11.8,0,0,1-5.6,3.89,31.37,31.37,0,0,1-8.34,1.55c-3.19.22-6.51.32-10,.33-5,0-10.06.23-15.08.63-4.58.37-8.15-1.81-8-5.1q.42-8.78.83-17.55c.16-3.28,3.77-6.42,8.07-6.8q7.11-.62,14.25-.68a55.59,55.59,0,0,1,9.42.72,25.56,25.56,0,0,1,8,2.66,16.58,16.58,0,0,1,5.72,5.08,14.65,14.65,0,0,1,2.45,7.9C206.7,152.78,206.1,155.23,204.74,157Z"/><path class="cls-7" d="M204.74,157a11.8,11.8,0,0,1-5.6,3.89,31.37,31.37,0,0,1-8.34,1.55c-3.19.22-6.51.32-10,.33-5,0-10.06.23-15.08.63-4.58.37-8.15-1.81-8-5.1q.42-8.78.83-17.55c.16-3.28,3.77-6.42,8.07-6.8q7.11-.62,14.25-.68a55.59,55.59,0,0,1,9.42.72,25.56,25.56,0,0,1,8,2.66,16.58,16.58,0,0,1,5.72,5.08,14.65,14.65,0,0,1,2.45,7.9C206.7,152.78,206.1,155.23,204.74,157Z"/></g></g></svg>