<svg xmlns="http://www.w3.org/2000/svg" viewBox="0 0 413 796"><defs><style>.cls-1{fill:#8193a5;}.cls-2{fill:#fff;}</style></defs><title>Asset 5</title><g id="Layer_2" data-name="Layer 2"><g id="Layer_1-2" data-name="Layer 1"><rect class="cls-1" width="413" height="796"/><path class="cls-2" d="M155.21,600.15l.1,9.49c1.58-1,3-1.33,3.29-2.12.88-2.23,1.81-4,5.53-3.41-1.3,3.07-2.48,5.87-3.84,9.1l12.66,6.2c-3.16.88-4.71,1.86-5.79,1.49a48.48,48.48,0,0,1-6.9-3.5c-2.58,1.76-1.11,2.85-.13,4.29.42.63-.27,2-1.89,3.24L155,618.58l-7.33,7.48-6.12.06c.22-1.15.1-2.27.56-2.62,2.11-1.6,4.38-3,7.29-4.92L140,615.45l0-2.49c3.93-.47,7.7-1.26,11.21,2.47.69-3.37-1.46-3.74-2.29-4.86a43.06,43.06,0,0,0-4.24-4.23l4.22-.83,4.1,5c3-3.2-3.05-6.07-.59-9.71Z"/><path class="cls-2" d="M230,719.14c4,.86,5.37-6.26,10.21-2.41l-5.69,4.54.05,4.93-5-2.86,1.64,6.7-1.95,4.48c-.38-.18-1-.27-1.14-.56a6.65,6.65,0,0,1-.3-5.36l-2-2-7.8,2.8-.05-4.34,5-1c-.29-1.51-.11-3.42-1-4.47-1.64-2-3.68-3.57-2.3-6.83,4.18,1.16,4.33,6,7.32,8.15,3.21-2.81-.65-4.8-.86-7.45l2.16-2.43a4.51,4.51,0,0,1,1.19.4C232.69,713.66,231.15,716.44,230,719.14Z"/><path class="cls-2" d="M372.18,434.54,364,439.9c2.05-3.94,3.8-7,6.91-9.55l-5.61-6.61c4.5-.33,6.53,2.06,8.63,4.12l5.1-12.34c3.09,5-2.39,8.91-.28,13.46l6.49-1.29c-.44,1.09-.48,1.67-.77,1.85-2.48,1.55-5,3-6.81,4.1.35,2.67.68,5.2,1,7.74l-1.1.38Z"/><path class="cls-2" d="M43.64,754.28c.46-4.93-4.51-5.51-5.32-9.79l4.12-1.1L47,749l5.53-5.49c-.53,4-.8,5.92-1.15,8.53l2.87,3L49.4,758.2c-.42,1.44-.88,3-1.84,6.39-1.9-4.13-3-6.59-4.39-9.5l-3.67,2L35.14,755l2.65-2.71Z"/><path class="cls-2" d="M372.7,261c2.68,1.7,2.69,4.63,2,7.74l-7.92,2.5-.1-10.18Z"/><path class="cls-2" d="M350,774.37l-4.34,1.56.94.92-7.73.08-.06-6.54,4.61-2.38Z"/><path class="cls-2" d="M366.72,746.19l-4.33,1.56.94.92-7.73.08-.07-6.54,4.62-2.38Z"/><path class="cls-2" d="M305.88,761.83l-4.33,1.56.94.92-7.73.08-.07-6.54,4.62-2.38Z"/></g></g></svg>