<svg xmlns="http://www.w3.org/2000/svg" viewBox="0 0 807 200"><defs><style>.cls-1{fill:#8193a5;}.cls-2{fill:#fff;}</style></defs><title>Asset 3</title><g id="Layer_2" data-name="Layer 2"><g id="Layer_1-2" data-name="Layer 1"><rect class="cls-1" width="807" height="200"/><path class="cls-2" d="M757.68,130.23,732.73,149c-9.26,0-19.54,1.4-29.06-.32-15-2.72-30-.39-44.7-2.29-10.18-1.31-20.51-.54-30.27-2.29-8.91-1.58-18-.34-26.36-2.26-9.36-2.15-18.83-.36-27.7-2.2-10.62-2.17-21.42-.47-31.6-2.31-10.67-1.95-21.13-1.33-31.7-2-6.14-.4-12.21-1.94-17.6-2.87l-27.46,22c-2.41-1.29-4-2.83-5.78-3-8.76-1-17.58-1.51-26.37-2.42-5.33-.54-10.59-1.65-15.93-2.17s-11.11,1.15-15.9-2.31c-9.49,1.72-18.26-3.13-27.67-2.29a23.44,23.44,0,0,1-12.09-2.08c-3.16-1.45-7.69,1.4-11-1.75-.66-.63-2.41-.79-3.56-.63-11.61,1.54-22.73-2.27-34.21-2.43-4,0-8-1.81-12-2.06-8-.52-15.38,2.4-23.07,3.58-1.2.18-2.33.75-3.53.84-10.1.79-20.19,1.4-30.29,2.35-3.61.34-7.11,1.48-10.69,2.2s-7.69-1.45-11,1.7c-.83.82-3.21.45-4.89.57-12.26.77-24.56,1.4-36.82,2.33-3.17.25-6.2,1.65-9.39,2.15s-6.26.66-9.58,1.86c-5.1,1.83-11.45-.3-17.13,2.53-3.37,1.7-7.9,1.64-13.6,2.68-8.87-4.8-18.62-10.56-28.88-15.54C94,136.09,86.16,130.38,77.19,126c-7.07-3.44-13.13-8.58-20.38-12.11-3.56-1.75-6.67-4.33-10.41-5.58-4.45-1.49-6-3.78-5.2-7.7C54.3,94.24,58.85,81.06,69.92,72.7,81.37,64,91.62,54.17,102.22,45c1.49.7,3,2,4.31,1.93,6.91-.39,12.77,2.21,19,4,5.39,1.52,10.91,3,16.93,3.17a58.07,58.07,0,0,1,18.7,4.42c9.44,3.85,19.72,4.3,29.53,6.59,6.67,1.56,13.44,2.74,20.53,4.15,5.26-1.27,11-3.11,17-4,7.84-1.18,15.95-1.09,23.69-2.51,9.29-1.7,18.29-4.51,27.94-4.4,3.82-3.55,8.81-1.72,13.31-2.31,4-.54,8-1.49,12-2.22,4.45-.79,8.84-1.7,13.31-2.22,4.11-.45,7.95-.52,12.16-1.92,4.92-1.66,11.15-.39,13.76-.39,10.07,2.79,17.37,4.78,24.67,6.8,11.32,3.12,23.17,4.32,34.6,6.93,9.68,2.19,19.23,5.89,29.22,4.23,15.32-2.56,30.94-.49,45.93-2.6,11.14-1.56,22.23-.18,32.95-2,17.53-2.92,35.23-.45,52.52-2.49,11.07-1.29,22-1.32,33-1.93,5.33-.29,10.59-1.58,15.93-2.13s10.88.86,16-2.15c1.81-1,5.13-.38,7.72-.11,17.23,1.67,34.05-3.29,51.21-2.31,11.12-4.17,22.83-1.45,34.24-2.33,4-.32,8-1.73,12-2.11,3.85-.39,7.8-.09,12.19-.09,1.23,5.91,2.64,10.8,3.17,15.76s-.21,9.83.21,14.7a24.15,24.15,0,0,0,2.61,9.22c3.4,6.34,2.62,12.93,2.43,19.5-.13,4.08,1.29,7.72,2.46,11.55C758.54,121.3,757.68,125.27,757.68,130.23Z"/></g></g></svg>