<svg id="Layer_1" data-name="Layer 1" xmlns="http://www.w3.org/2000/svg" xmlns:xlink="http://www.w3.org/1999/xlink" viewBox="0 0 134.93 134.93"><defs><style>.cls-1{fill:none;}.cls-2{fill:#d2d2d1;}.cls-3{clip-path:url(#clip-path);}.cls-4{fill:#aeadae;}.cls-5{fill:#fff;}.cls-6{fill:#414042;}</style><clipPath id="clip-path"><path class="cls-1" d="M125.14,59H78.2A2.23,2.23,0,0,1,76,56.73V9.8A8.7,8.7,0,0,0,68,1,8.5,8.5,0,0,0,59,9.5V56.73A2.23,2.23,0,0,1,56.73,59H9.79A8.7,8.7,0,0,0,1,66.9,8.5,8.5,0,0,0,9.5,76H56.73A2.23,2.23,0,0,1,59,78.2v46.94a8.71,8.71,0,0,0,7.94,8.78A8.51,8.51,0,0,0,76,125.43V78.2A2.23,2.23,0,0,1,78.2,76h47.23a8.5,8.5,0,0,0,8.48-9.07A8.69,8.69,0,0,0,125.14,59Z"/></clipPath></defs><title>ontrack_logos</title><path class="cls-2" d="M125.14,59H78.2A2.23,2.23,0,0,1,76,56.73V9.8A8.7,8.7,0,0,0,68,1,8.5,8.5,0,0,0,59,9.5V56.73A2.23,2.23,0,0,1,56.73,59H9.79A8.7,8.7,0,0,0,1,66.9,8.5,8.5,0,0,0,9.5,76H56.73A2.23,2.23,0,0,1,59,78.2v46.94a8.71,8.71,0,0,0,7.94,8.78A8.51,8.51,0,0,0,76,125.43V78.2A2.23,2.23,0,0,1,78.2,76h47.23a8.5,8.5,0,0,0,8.48-9.07A8.69,8.69,0,0,0,125.14,59Z"/><g class="cls-3"><path class="cls-4" d="M137.53,72.61l2.43-4.3-9.24-7.4a8,8,0,0,1,1.81,3.36,7.3,7.3,0,0,1-4.13,7.8,7.57,7.57,0,0,1-2.45.52H76.37a3.93,3.93,0,0,0-3.93,3.93v49.81a7.23,7.23,0,0,1-.51,2.33,7.31,7.31,0,0,1-7.81,4.13A8,8,0,0,1,60.77,131l7.4,9.24,4.27-2.42V139a3.71,3.71,0,0,0,6.37,2.59L140,78.9A3.71,3.71,0,0,0,137.53,72.61Z"/><path class="cls-5" d="M66.41-5.7,62.24-3.34V-4.42a3.72,3.72,0,0,0-2.57-3.53,3.72,3.72,0,0,0-3.8.94L-5.29,55.68A3.7,3.7,0,0,0-3,62l-2.44,4.31,9.24,7.4A8,8,0,0,1,2,70.31a7.3,7.3,0,0,1,4.13-7.8A7.29,7.29,0,0,1,8.55,62h50a3.71,3.71,0,0,0,3.71-3.71V7.37a5.68,5.68,0,0,1,.41-1.51,7.31,7.31,0,0,1,7.81-4.13,8.07,8.07,0,0,1,3.35,1.8Z"/></g><path class="cls-6" d="M68.92,21V41a1,1,0,0,0,2,0V21a1,1,0,0,0-2,0Zm0-11v3a1,1,0,1,0,2,0V10a1,1,0,0,0-2,0Z"/><path class="cls-6" d="M125.14,59V58H78.41A1.44,1.44,0,0,1,77,56.52V9.8a10,10,0,0,0-2.53-6.65A9.25,9.25,0,0,0,68.1,0l-.63,0A9.5,9.5,0,0,0,58,9.5v47A1.43,1.43,0,0,1,56.52,58H9.79a10,10,0,0,0-6.64,2.53A9.29,9.29,0,0,0,0,66.84c0,.21,0,.42,0,.63A9.5,9.5,0,0,0,9.5,77h47A1.44,1.44,0,0,1,58,78.41v46.73a10,10,0,0,0,2.53,6.64,9.29,9.29,0,0,0,6.35,3.13c.21,0,.42,0,.63,0a9.5,9.5,0,0,0,9.5-9.5v-47A1.45,1.45,0,0,1,78.41,77h47a9.5,9.5,0,0,0,9.5-9.5c0-.21,0-.42,0-.63a9.29,9.29,0,0,0-3.13-6.35A10,10,0,0,0,125.14,58v2a8,8,0,0,1,5.31,2,7.3,7.3,0,0,1,2.47,5c0,.16,0,.33,0,.5a7.49,7.49,0,0,1-7.5,7.5h-47A3.44,3.44,0,0,0,75,78.41v47a7.49,7.49,0,0,1-7.5,7.5H67a7.3,7.3,0,0,1-5-2.47,8,8,0,0,1-2-5.31V78.41A3.44,3.44,0,0,0,56.52,75H9.5A7.51,7.51,0,0,1,2,67.47c0-.17,0-.34,0-.5a7.29,7.29,0,0,1,2.46-5,8,8,0,0,1,5.31-2H56.52A3.44,3.44,0,0,0,60,56.52V9.5A7.51,7.51,0,0,1,67.47,2L68,2a7.29,7.29,0,0,1,5,2.46A8,8,0,0,1,75,9.8V56.52A3.44,3.44,0,0,0,78.41,60h46.73Z"/></svg>